<?xml version="1.0" encoding="utf-8"?>
<!-- Generator: Adobe Illustrator 19.1.0, SVG Export Plug-In . SVG Version: 6.00 Build 0)  -->
<svg version="1.1" id="Ebene_1" xmlns="http://www.w3.org/2000/svg" xmlns:xlink="http://www.w3.org/1999/xlink" x="0px" y="0px"
	 viewBox="0 0 708.7 453.5" style="enable-background:new 0 0 708.7 453.5;" xml:space="preserve">
<style type="text/css">
	.st0{fill:#010202;}
</style>
<g>
	<path class="st0" d="M209.9,412.9c6.1-3.1,7.8-9.4,7.8-12.7c0-14-12.4-17.2-22-17.2h-25.1v64.9h27.5c15.7,0,21.9-9.7,21.9-20.1
		c0-4.4-2.3-12.4-10.1-14.6L209.9,412.9L209.9,412.9z M195.9,419.8c3.3,0,9.6,0.9,9.6,7.7c0,5.2-3.9,7.4-9.8,7.4H185v-15.1H195.9
		L195.9,419.8z M196.3,396.2c3.5,0,7,0.9,7,5.7c0,4.4-3.6,5.7-6.3,5.7h-12v-11.5H196.3L196.3,396.2z M231.5,447.9h14.1v-24.2h7.3
		l11.7,24.2h13.7v-4.2L266.9,421c6.1-3.1,11.4-8.4,11.4-17.2c0-14.5-9.2-20.8-23.2-20.8h-23.5V447.9L231.5,447.9z M245.7,410.7
		v-14.6h9.8c5.1,0,8.6,2.2,8.6,7.5c0,4.6-3.1,7.2-7.7,7.2H245.7L245.7,410.7z M289.3,447.9h44.2v-13h-29.9v-14.7h24.9v-13.1h-24.9
		v-11h28.8V383h-43.1V447.9L289.3,447.9z M387.7,410.1v37.7H402V383h-17.1l-5.5,11.2l-6.2,13.5h-0.5l-6-13l-5.8-11.7h-16.9v64.9
		h14.2v-37.7h0.4l4.8,9.7l3.9,7.2h12.4c0.9-2.1,2-4.3,3.2-6.8l4.5-10.1H387.7L387.7,410.1z M414.4,447.9h44.2v-13h-29.9v-14.7h24.9
		v-13.1h-24.9v-11h28.8V383h-43.1V447.9L414.4,447.9z M503.2,419.9l-5.8-12.9l-11.3-24H469v64.9h14.1V409h0.4l5.1,10.8l14.4,28.1
		h14.7V383h-14v36.9H503.2L503.2,419.9z"/>
	<path class="st0" d="M41.5,60.9V10.4H6v161.9h35.5v-64.9l8.3-7.9l52.5,72.7h34.3v-10.7L74.4,75.7l57.9-54.4v-11H97.6L42.2,61.1
		L41.5,60.9L41.5,60.9z M189.3,10.4h-35.5v109.2c0,36,25.3,54.4,58.4,54.4c32.9,0,59.6-17.2,59.6-54.4V10.4h-35.3v104
		c0,15.3-6.9,27.2-24.1,27.2c-16.9,0-23.1-11.9-23.1-27.2V10.4L189.3,10.4z M387.5,102.4l-14.5-32.2l-28.1-59.8h-42.7v161.9h35.3
		v-97h1l12.6,26.9l36,70.1h36.7V10.4h-35v92H387.5L387.5,102.4z M506.9,8.7c-32.9,0-55.3,19.6-55.3,48.9c0,56.5,81.8,34.8,81.8,68.2
		c0,7.4-5.7,15.7-23.1,15.7c-15,0-26-6-31.5-25.7l-33.6,13.6c11.2,41.7,44.6,44.6,65.8,44.6c26.5,0,57.5-15,57.5-49.6
		c0-60.6-81.1-42.7-81.1-68.7c0-7.4,6.2-14.8,20.5-14.8c9.5,0,19.8,2.9,25.5,18.6l31-13.8C552,13.7,528.6,8.7,506.9,8.7L506.9,8.7z
		 M658.1,43h43.4V10.4H579.2V43h43.4v129.2h35.5V43L658.1,43z"/>
	<path class="st0" d="M175.4,334.3h24.8V221.2h-24.8v42.1h-35v-42.1h-24.8v113.1h24.8v-48h35V334.3L175.4,334.3z M281.8,334.3h24
		v-7.2l-33-106.1H247l-32.6,106.1v7.2h23.1l7.5-24.5h29.5L281.8,334.3L281.8,334.3z M260.2,254.9L264,273l3.7,14.7h-16l3.7-14.7
		l3.8-18.2H260.2L260.2,254.9z M320,334.3h79.9v-22.6h-54.8v-90.4H320V334.3L320,334.3z M413.2,334.3h79.9v-22.6h-54.8v-90.4h-25.1
		V334.3L413.2,334.3z M506.5,334.3h77.1v-22.6h-52.1V286h43.5v-22.8h-43.5V244h50.1v-22.8h-75.1V334.3L506.5,334.3z"/>
</g>
</svg>
