<?xml version="1.0" encoding="utf-8"?>
<!-- Generator: Adobe Illustrator 22.0.1, SVG Export Plug-In . SVG Version: 6.00 Build 0)  -->
<svg version="1.1" id="Ebene_1" xmlns="http://www.w3.org/2000/svg" xmlns:xlink="http://www.w3.org/1999/xlink" x="0px" y="0px"
	 viewBox="0 0 50 50" style="enable-background:new 0 0 50 50;" xml:space="preserve">
<path d="M28.7,22.7v-2.3H31v13H17.4v-13h2.3v2.3h2.3v-2.3h4.5v2.3H28.7z M26.5,15.9v2.3h-4.5v-2.3h-2.3v2.3h-2.3h-2.3v2.3v13v2.3
	h2.3H31h1.7h0.6V18.2h-0.6H31h-2.3v-2.3H26.5z"/>
<polygon points="22.1,31.2 23.4,31.2 23.4,25 22.1,25 21,25.9 21,27.1 21.5,27.1 22.1,26.7 "/>
<polygon points="25.6,31.2 27,31.2 27,25 25.7,25 24.5,25.9 24.5,27.1 25,27.1 25.6,26.7 "/>
</svg>
