<?xml version="1.0" encoding="utf-8"?>
<!-- Generator: Adobe Illustrator 23.0.1, SVG Export Plug-In . SVG Version: 6.00 Build 0)  -->
<svg version="1.1" id="Ebene_1" xmlns="http://www.w3.org/2000/svg" xmlns:xlink="http://www.w3.org/1999/xlink" x="0px" y="0px"
	 viewBox="0 0 50 50" style="enable-background:new 0 0 50 50;" xml:space="preserve">
<style type="text/css">
	.st0{clip-path:url(#SVGID_2_);}
	.st1{clip-path:url(#SVGID_2_);fill:#FFFFFF;}
</style>
<g>
	<g>
		<defs>
			<rect id="SVGID_1_" x="1.36" y="1.36" width="47.29" height="47.29"/>
		</defs>
		<clipPath id="SVGID_2_">
			<use xlink:href="#SVGID_1_"  style="overflow:visible;"/>
		</clipPath>
		<path class="st0" d="M25,1.36c13.06,0,23.64,10.59,23.64,23.64S38.06,48.64,25,48.64C11.94,48.64,1.36,38.06,1.36,25
			S11.94,1.36,25,1.36"/>
		<path class="st1" d="M27.09,31.49v-6.43v-4.27h3.22v10.71H27.09z M19.56,25.06v-4.27h3.22v10.71h-3.22V25.06z M37.82,16.28
			c-0.03-0.33-0.21-0.62-0.47-0.79l0,0l-0.08-0.04c-0.04-0.02-0.08-0.05-0.13-0.06L25.47,9.61c-0.04-0.02-0.09-0.05-0.14-0.07
			L25.3,9.53l-0.01,0c-0.11-0.04-0.23-0.06-0.35-0.06c-0.16,0-0.31,0.04-0.44,0.1l-0.01,0l-11.77,5.82
			c-0.03,0.01-0.05,0.02-0.08,0.04l-0.12,0.06v0.01c-0.27,0.18-0.45,0.48-0.47,0.82l-0.01,0v0.13v1.1v1.08h0.83h0.24v1.23l0,0
			c0,0.51,0.42,0.92,0.93,0.92l0.04,0l0,0h1.18v10.71h-1.23l0,0c-0.47,0.01-0.86,0.37-0.91,0.83l-0.01,0.01v0.12v1.13h-0.26
			l-0.01,0.01c-0.44,0.06-0.79,0.42-0.81,0.87l0,0v0.12v2.22h12.83h12.96v-2.2v-0.12l0,0c-0.01-0.45-0.34-0.81-0.77-0.88l-0.02-0.02
			h-0.28v-1.05v-0.12l0,0c-0.01-0.5-0.4-0.9-0.9-0.91l-0.01,0h-1.24v-6.43v-4.27h1.17l0.01,0l0.05,0c0.51,0,0.93-0.42,0.93-0.93
			l0-0.03l0,0v-1.19h1.07v-2.2V16.3L37.82,16.28z"/>
	</g>
</g>
</svg>
