<?xml version="1.0" encoding="utf-8"?>
<!-- Generator: Adobe Illustrator 23.0.3, SVG Export Plug-In . SVG Version: 6.00 Build 0)  -->
<svg version="1.1" id="Ebene_1" xmlns="http://www.w3.org/2000/svg" xmlns:xlink="http://www.w3.org/1999/xlink" x="0px" y="0px"
	 viewBox="0 0 50 36" style="enable-background:new 0 0 50 36;" xml:space="preserve">
<style type="text/css">
	.st0{clip-path:url(#SVGID_2_);fill:#FFFFFF;}
</style>
<rect x="-0.14" y="-0.44" width="50.11" height="36.75"/>
<g>
	<defs>
		<rect id="SVGID_1_" x="-0.14" y="-0.44" width="50.11" height="36.75"/>
	</defs>
	<clipPath id="SVGID_2_">
		<use xlink:href="#SVGID_1_"  style="overflow:visible;"/>
	</clipPath>
	<path class="st0" d="M26.91,26.45h11.6v-3.41h-7.84v-3.86h6.54v-3.43h-6.54v-2.88h7.54V9.43h-11.3V26.45z M20.17,20.73
		c0,1.53-1,2.31-2.41,2.31h-2.71V12.86h2.71c1.6,0,2.41,0.75,2.41,2.41V20.73z M17.91,26.45c3.21,0,5.99-1.73,5.99-5.71v-5.49
		c0-4.08-2.68-5.81-5.94-5.81h-6.64v17.01H17.91z"/>
</g>
</svg>
