<?xml version="1.0" encoding="utf-8"?>
<!-- Generator: Adobe Illustrator 19.1.0, SVG Export Plug-In . SVG Version: 6.00 Build 0)  -->
<svg version="1.1" id="Ebene_1" xmlns="http://www.w3.org/2000/svg" xmlns:xlink="http://www.w3.org/1999/xlink" x="0px" y="0px"
	 viewBox="0 0 56.7 56.7" style="enable-background:new 0 0 56.7 56.7;" xml:space="preserve">
<style type="text/css">
	.st0{clip-path:url(#SVGID_2_);fill:#010202;}
</style>
<g>
	<defs>
		<rect id="SVGID_1_" x="19" y="19.8" width="18.9" height="18.9"/>
	</defs>
	<clipPath id="SVGID_2_">
		<use xlink:href="#SVGID_1_"  style="overflow:visible;"/>
	</clipPath>
	<path class="st0" d="M22.8,28c1.5,3,3.9,5.4,6.9,6.9l2.3-2.3c0.3-0.3,0.7-0.4,1.1-0.3c1.2,0.4,2.4,0.6,3.7,0.6c0.6,0,1.1,0.5,1.1,1
		v3.7c0,0.6-0.5,1-1.1,1c-9.9,0-17.8-8-17.8-17.9c0-0.6,0.5-1,1-1h3.7c0.6,0,1,0.5,1,1c0,1.3,0.2,2.6,0.6,3.7c0.1,0.4,0,0.8-0.3,1.1
		L22.8,28z"/>
</g>
</svg>
