<?xml version="1.0" encoding="utf-8"?>
<!-- Generator: Adobe Illustrator 19.1.0, SVG Export Plug-In . SVG Version: 6.00 Build 0)  -->
<svg version="1.1" id="Ebene_1" xmlns="http://www.w3.org/2000/svg" xmlns:xlink="http://www.w3.org/1999/xlink" x="0px" y="0px"
	 viewBox="0 0 113.4 85" style="enable-background:new 0 0 113.4 85;" xml:space="preserve">
<style type="text/css">
	.st0{fill:#010202;}
</style>
<g>
	<path class="st0" d="M90.5,18.1c-2.5,1.1-5.2,1.8-8,2.2c2.9-1.7,5.1-4.4,6.1-7.7c-2.7,1.6-5.6,2.7-8.8,3.4
		c-2.5-2.7-6.1-4.4-10.1-4.4c-7.7,0-13.9,6.2-13.9,13.9c0,1.1,0.1,2.1,0.4,3.2C44.7,28,34.5,22.5,27.6,14.1c-1.2,2-1.9,4.4-1.9,7
		c0,4.8,2.4,9,6.2,11.5c-2.3-0.1-4.4-0.7-6.3-1.7c0,0.1,0,0.1,0,0.2c0,6.7,4.8,12.3,11.1,13.6c-1.2,0.3-2.4,0.5-3.7,0.5
		c-0.9,0-1.8-0.1-2.6-0.2c1.8,5.5,6.9,9.5,12.9,9.6c-4.7,3.7-10.7,5.9-17.2,5.9c-1.1,0-2.2-0.1-3.3-0.2c6.1,3.9,13.4,6.2,21.2,6.2
		c25.5,0,39.4-21.1,39.4-39.4c0-0.6,0-1.2,0-1.8C86.3,23.3,88.6,20.9,90.5,18.1z"/>
</g>
</svg>
